<?xml version="1.0" encoding="UTF-8"?> <svg xmlns="http://www.w3.org/2000/svg" width="325" height="419" viewBox="0 0 325 419" fill="none"> <path d="M50.9841 416.827C120.466 421.346 190.043 411.06 257.053 392.741C280.678 386.282 345.015 361.794 315.615 326.623C299.101 306.867 273.133 301.443 248.867 298.207C208.209 292.786 166.381 292.732 125.446 294.35C118.455 294.627 97.5482 292.495 91.521 298.522C88.4309 301.612 95.4313 297.514 95.4566 297.499C102.624 293.35 110.519 289.911 117.417 285.377C122.198 282.236 114.197 281.822 112.695 281.678C99.3669 280.402 85.754 280.842 72.3939 280.812C50.1477 280.762 27.8053 281.451 5.56705 280.733C-7.91873 280.298 18.5158 275.887 19.7353 275.617C69.459 264.616 116.165 243.966 162.441 223.194C164.608 222.222 171.395 219.997 165.511 218.472C157.536 216.404 149.01 216.313 140.874 215.323C134.451 214.542 114.705 212.301 130.169 204.461C164.086 187.266 204.82 179.568 241.153 169.276C261.73 163.448 282.367 157.895 303.021 152.353C306.346 151.461 315.669 149.443 312.467 148.182C293.148 140.571 269.038 139.964 248.867 136.453C209.433 129.59 169.505 122.33 131.428 109.691C129.58 109.078 114.042 105.506 113.56 102.135C112.81 96.8784 122.294 91.6308 125.603 89.5408C128.46 87.7366 147.481 80.0201 136.781 78.2849C107.388 73.5186 75.6239 76.7894 45.9465 76.7894C38.3348 76.7894 16.7293 80.2948 23.1199 76.1597C28.5676 72.6348 38.6714 71.1678 44.451 69.6266C54.4787 66.9525 64.5371 64.3811 74.5978 61.834C82.0172 59.9557 88.8732 57.9213 95.8502 54.7499C98.9917 53.3219 115.194 46.4367 114.426 46.249C88.814 39.9882 60.2952 41.9354 34.1397 38.85C30.5282 38.424 26.9096 37.9696 23.3561 37.1971C18.1259 36.0601 18.7969 35.4967 23.1199 33.8124C37.8795 28.0619 54.6307 24.8744 70.0325 21.8481C111.109 13.7772 152.597 13.3253 193.768 7.0502C198.997 6.25328 209.975 5.64185 213.919 1.69775" stroke="#EBEBEB" stroke-width="2" stroke-linecap="round" stroke-linejoin="round"></path> </svg> 