<?xml version="1.0" encoding="UTF-8"?> <svg xmlns="http://www.w3.org/2000/svg" width="585" height="359" viewBox="0 0 585 359" fill="none"> <path d="M363.124 357.515C391.438 356.075 420.735 342.483 446.874 332.563C465.735 325.405 484.515 317.969 503.232 310.445C524.555 301.873 547.467 293.875 567.147 281.793C568.906 280.713 589.499 261.256 581.158 263.06C570.384 265.389 560.162 270.889 549.515 273.843C519.332 282.218 487.829 284.44 456.634 284.942C429.61 285.377 402.403 284.696 375.561 281.321C373.016 281.001 347.197 279.458 357.536 271.088C371.911 259.451 392.98 253.905 410.273 248.655C440.982 239.333 472.361 231.424 503.547 223.861C613.118 197.29 445.649 238.106 528.263 218.194C530.167 217.735 535.6 216.854 533.773 216.147C525.444 212.923 510.691 216.133 502.052 216.541C498.183 216.723 466.598 219.26 483.554 214.416" stroke="#EBEBEB" stroke-width="2" stroke-linecap="round" stroke-linejoin="round"></path> <path d="M147.767 211.582C124.769 206.717 102.304 199.211 80.1531 191.431C54.6921 182.489 24.0786 173.219 4.9827 152.862C-4.88357 142.344 5.93372 124.956 12.5391 115.395C22.3791 101.153 37.6205 91.1633 51.5804 81.3914C66.014 71.2879 80.7926 62.4618 97.6272 56.9905C111.03 52.6345 129.218 48.6904 139.266 61.5558C152.473 78.4657 156.825 107.358 155.717 128.225C155.209 137.787 146.408 163.114 131.867 158.215C121.589 154.752 112.495 140.366 106.837 132.397C93.5234 113.648 78.9926 91.6606 73.6199 68.9548C61.9681 19.7121 141.552 18.2988 171.538 16.0601C260.738 9.40036 354.903 11.5218 441.994 33.3768C444.71 34.0584 483.673 41.9612 463.483 49.2767C436.562 59.0307 402.446 55.2387 375.482 48.096C368.685 46.2955 324.944 32.701 333.213 19.2086C335.411 15.6223 340.814 14.8134 344.391 13.8561C352.825 11.599 360.391 7.37046 368.713 5.04032C380.119 1.84668 392.327 2.02663 404.055 1.89183C428.185 1.61446 452.338 1.89183 476.47 1.89183C507.168 1.89183 537.866 1.89183 568.564 1.89183" stroke="#EBEBEB" stroke-width="2" stroke-linecap="round" stroke-linejoin="round"></path> </svg> 