<?xml version="1.0" encoding="UTF-8"?> <svg xmlns="http://www.w3.org/2000/svg" width="648" height="481" viewBox="0 0 648 481" fill="none"> <path d="M77.8995 411.559C95.0082 420.956 114.283 425.643 132.998 430.764C165.148 439.562 197.514 447.839 230.208 454.378C240.868 456.51 250.957 457.076 261.772 456.818C288.493 456.182 315.17 455.662 341.901 455.401C377.193 455.057 410.853 453.812 444.857 444.46C454.837 441.716 465.773 440.23 474.295 433.913C483.359 427.195 491.306 419.306 500.743 412.975C521.429 399.097 543.855 385.582 560.8 367.007C568.341 358.742 574.447 349.361 581.108 340.403C588.921 329.896 597.903 318.79 602.596 306.399C608.056 291.987 607.458 274.565 607.713 259.408C607.948 245.439 608.315 231.259 607.634 217.296C606.443 192.879 596.176 167.098 571.584 158.656C565.329 156.508 541.05 144.411 536.95 154.484C530.686 169.876 530.236 189.631 529.079 205.962C528.222 218.054 526.388 232.699 532.7 243.744C541.348 258.879 563.202 266.137 579.14 258.699C592.247 252.582 602.627 236.111 610.94 225.01C624.938 206.319 636.722 186.081 642.582 163.3C649.935 134.719 647.281 102.335 627.548 79.3136C598.56 45.4936 549.333 29.0408 505.78 26.4975C492.266 25.7084 477.506 24.9955 463.984 26.4188C446.528 28.2563 428.762 36.7218 411.798 41.0593C384.045 48.1552 355.989 56.7788 327.811 61.9181C316.144 64.0462 304.302 64.9727 292.47 65.5389C290.692 65.6239 284.216 66.5876 282.08 64.9092C274.077 58.6211 288.15 40.9325 288.691 33.8965C289.743 20.2279 136.637 23.9112 122.451 23.6639C114.312 23.522 96.9801 26.4339 88.6831 22.5619C84.0731 20.4106 101.867 14.2923 102.536 14.061C121.038 7.67357 139.963 4.47412 159.446 2.96254C170.017 2.14234 184.872 -0.0196531 195.024 4.37936C201.371 7.1301 204.437 20.6231 206.201 26.1827C212.877 47.223 210.809 68.1019 199.274 87.2635C183.053 114.209 152.151 131.818 125.757 147.242C108.223 157.489 90.0733 165.352 70.5005 170.699C57.6246 174.216 45.0455 177.248 31.9315 179.514C25.0207 180.709 29.5078 192.65 30.6721 196.831C34.925 212.103 41.3954 227.551 51.6096 239.808C60.3107 250.25 71.788 256.255 81.5203 265.311C103.153 285.442 35.9661 323.239 24.1389 331.744C19.639 334.98 8.82595 339.702 6.34993 345.204C3.76669 350.945 2.03797 357.933 1.54848 364.174C0.480333 377.793 0.479856 393.839 7.84547 405.891C19.3953 424.791 44.5429 435.967 52.7115 456.661C55.2068 462.982 51.4978 472.042 58.064 476.733C66.2635 482.589 82.5309 476.02 90.6509 473.899C124.059 465.173 157.523 456.662 190.931 447.924C202.352 444.936 213.795 442.032 225.17 438.872C226.673 438.455 230.828 437.801 232.333 436.432C236.061 433.043 235.682 420.005 237.371 415.652C253.789 373.322 294.67 363.927 335.761 361.97" stroke="#EBEBEB" stroke-width="2" stroke-linecap="round" stroke-linejoin="round"></path> </svg> 