<?xml version="1.0" encoding="UTF-8"?> <svg xmlns="http://www.w3.org/2000/svg" width="602" height="861" viewBox="0 0 602 861" fill="none"> <path d="M241.495 1.36279C329.141 25.5317 417.336 47.8308 505.089 71.6473C530.959 78.6686 556.975 85.1525 582.816 92.2755C589.796 94.1995 611.385 97.6305 593.875 103.759C578.65 109.088 562.275 112.336 546.558 115.668C485.712 128.567 424.293 135.965 362.18 139.274C272.67 144.042 182.774 137.494 93.3764 142.889C89.2767 143.136 78.938 144.502 81.8927 147.355C91.503 156.634 107.369 162.789 119.534 167.345C146.897 177.593 177.017 179.943 205.981 177.127C224.932 175.285 242.746 170.982 262.017 170.641C273.972 170.43 294.444 166.424 305.825 172.449C315.709 177.681 294.614 178.191 293.278 178.191C264.107 178.191 237.269 176.548 209.702 187.335C198.866 191.575 209.905 192.12 215.444 192.652C243.324 195.325 271.37 194.628 299.233 197.33C357.841 203.013 417.053 199.374 475.741 206.581C515.707 211.489 553.077 224.649 591.429 236.034C606.291 240.447 590.386 246.177 583.88 248.05C569.081 252.31 548.405 251.865 537.519 265.169C531.091 273.026 538.264 294.181 538.264 303.661C538.264 318.955 510.889 330.198 499.985 337.049C416.119 389.733 323.632 431.553 231.606 467.623C158.414 496.311 83.2917 518.52 8.94992 543.755C2.86088 545.822 -3.94993 548.185 6.18533 549.072C36.2379 551.701 66.3298 552.658 96.3537 556.09C193.903 567.238 289.715 591.293 384.722 615.422C392.878 617.493 425.626 620.705 433.209 628.288C435.241 630.32 430.245 633.501 427.786 634.987C422.427 638.227 396.341 651.765 394.505 652.744C326.391 689.071 243.866 727.99 217.996 807.243C213.617 820.657 213.88 830.642 226.928 836.377C247.42 845.385 271.704 847.621 293.703 849.562C359.627 855.379 429.755 850.566 495.094 840.843C508.269 838.883 508.305 848.308 509.555 859.557" stroke="#EBEBEB" stroke-width="2" stroke-linecap="round" stroke-linejoin="round"></path> </svg> 