<?xml version="1.0" encoding="UTF-8"?> <svg xmlns="http://www.w3.org/2000/svg" width="329" height="478" viewBox="0 0 329 478" fill="none"> <path d="M1.68018 476.959C30.7037 472.455 221.046 448.025 204.606 413.383C187.232 376.774 146.349 353.047 112.938 333.728C87.7074 319.139 53.5583 307.807 25.8908 324.765C23.5172 326.219 17.8193 328.61 22.1945 331.326C34.5369 338.986 51.5434 340.643 65.5334 341.952C99.1145 345.094 133.219 344.047 166.904 343.893C194.494 343.767 222.027 343.392 249.054 337.24C253.756 336.169 275.049 334.019 268.182 324.672C258.206 311.094 241.305 301.559 225.952 295.564C216.054 291.699 206.632 290.667 196.289 290.667" stroke="#EBEBEB" stroke-width="2" stroke-linecap="round" stroke-linejoin="round"></path> <path d="M111.992 13.3252C161.304 -1.512 214.775 1.99066 265.638 1.99066C285.264 1.99066 304.89 1.99066 324.515 1.99066C325.413 1.99066 327.971 1.85986 327.191 2.3055C323.409 4.46703 316.933 5.56418 313.102 6.7134C282.518 15.8885 251.651 23.6396 220.772 31.7439C193.061 39.0171 160.228 45.1235 135.448 60.5527C128.858 64.6558 133.268 68.1755 138.911 69.8408C155.027 74.5963 173.589 72.8318 190.153 72.8318C198.526 72.8318 208.85 71.2599 217.151 73.1467C222.458 74.3527 207.058 81.1806 206.761 81.3328C204.892 82.2928 188.958 87.7734 189.445 90.9357C189.803 93.2647 195.72 92.4309 197.316 93.2971C215.65 103.25 238.07 103.209 256.114 113.133C259.261 114.863 255.52 119.158 253.674 121.004" stroke="#EBEBEB" stroke-width="2" stroke-linecap="round" stroke-linejoin="round"></path> </svg> 