<?xml version="1.0" encoding="UTF-8"?> <svg xmlns="http://www.w3.org/2000/svg" width="685" height="373" viewBox="0 0 685 373" fill="none"> <path d="M106.32 364.659C133.725 363.078 161.319 366.061 188.732 366.548C281.179 368.191 374.462 365.422 466.351 354.899C519.067 348.862 571.992 339.718 622.988 324.752C625.637 323.975 632.924 321.336 630.23 320.738C619.529 318.36 608.381 318.205 597.486 317.904C567.647 317.081 537.834 315.664 507.99 315.07C483.948 314.592 452.08 315.953 430.537 303.027C415.958 294.28 454.136 274.856 458.401 272.644C478.807 262.063 499.738 255.248 522 250.054C525.486 249.24 529.396 248.797 532.469 246.905C536.782 244.252 544.472 242.864 548.841 241.868C569.974 237.048 591.423 233.751 612.756 229.982C633.454 226.326 654.454 222.937 674.781 217.467C679.097 216.306 690.221 213.321 679.189 211.091C650.787 205.35 619.384 208.809 590.559 208.809C588.545 208.809 569.158 211.444 567.968 206.447C566.257 199.261 585.775 185.25 590.008 181.81C604.721 169.856 622.21 161.718 636.763 149.696C644.894 142.979 635.54 141.496 628.813 140.171C599.081 134.317 569.241 135.545 539.238 133.402C523.487 132.277 551.842 119.463 555.611 117.345C558.721 115.597 567.017 112.586 569.307 109.316C570.653 107.392 563.991 107.202 564.426 105.853C566.915 98.1382 588.755 91.6251 595.439 88.2212C602.95 84.3963 598.914 83.2976 592.291 81.6094C583.711 79.4225 575.496 77.7779 567.103 74.8401C537.292 64.4063 505.537 59.3103 475.954 48.3927C470.608 46.4198 472.165 43.1521 475.639 39.8918C486.934 29.2916 504.857 26.164 519.245 22.4176C528.659 19.9666 557.466 16.2133 547.739 16.1206C502.515 15.6899 457.265 16.1206 412.039 16.1206C365.389 16.1206 318.739 16.1206 272.088 16.1206C254.067 16.1206 286.579 16.1206 288.461 16.1206C321.928 16.1206 355.325 16.0932 388.74 13.9167C402.031 13.051 415.292 11.8188 428.569 10.7682C429.54 10.6913 430.526 10.7231 431.481 10.532C434.388 9.95057 425.551 10.4533 422.587 10.4533C318.517 10.4533 214.69 4.74161 110.649 2.6608C102.739 2.50259 88.1712 0.21579 79.7153 2.89694C75.9701 4.08444 78.6811 7.25828 80.4237 8.40681C95.9212 18.6211 118.764 16.3969 136.231 17.7736C151.363 18.9662 166.594 20.3346 181.569 22.8899C184.476 23.3859 191.952 24.1599 194.478 26.9829C201.621 34.9667 162.999 59.5841 159.766 61.8525C134.09 79.866 104.123 94.2608 81.2895 116.007C66.3254 130.258 108.57 122.833 113.876 122.382C117.008 122.117 156.943 116.427 157.955 120.729C160.02 129.505 130.423 143.562 125.447 146.232C114.274 152.227 98.9697 155.436 88.8459 162.919C78.5211 170.551 70.1217 178.878 58.5416 185.431C47.0354 191.942 32.4382 196.79 22.1765 205.267C18.0226 208.698 18.1267 209.725 23.5933 211.091C41.0513 215.456 58.572 219.849 75.6222 225.653C87.9136 229.837 110.867 235.308 117.576 248.401C124.809 262.516 102.501 274.3 94.0409 279.335C73.4396 291.596 47.218 303.583 24.1443 310.505C17.176 312.596 8.38366 313.79 2.10485 317.904C-1.89034 320.522 15.8376 323.747 16.5879 323.886C30.076 326.387 43.3365 328.977 56.4164 333.174C61.1579 334.696 68.4051 335.502 72.6312 338.369C79.3348 342.918 75.2284 345.921 69.4827 346.24C67.5324 346.349 68.569 348.044 67.4361 349.074C62.0162 354.001 52.5762 356.116 46.0264 358.992C40.7974 361.288 31.8234 364.108 27.6077 368.123C25.409 370.217 27.7223 371.743 29.6542 371.743C60.3611 371.743 91.12 368.91 121.905 368.91" stroke="#EBEBEB" stroke-width="2" stroke-linecap="round" stroke-linejoin="round"></path> </svg> 