<?xml version="1.0" encoding="UTF-8"?> <svg xmlns="http://www.w3.org/2000/svg" xmlns:xlink="http://www.w3.org/1999/xlink" id="eqNH2G0ewsF1" viewBox="0 0 657 880" shape-rendering="geometricPrecision" text-rendering="geometricPrecision"> <style><![CDATA[#eqNH2G0ewsF2 {animation: eqNH2G0ewsF2_s_do 3000ms linear 1 normal forwards}@keyframes eqNH2G0ewsF2_s_do { 0% {stroke-dashoffset: 2460.330000;animation-timing-function: cubic-bezier(0.215000,0.610000,0.355000,1)} 100% {stroke-dashoffset: 0}}]]></style> <path id="eqNH2G0ewsF2" d="M536.368000,-32.981300C536.368000,7.785130,534.342000,43.088700,519.009000,81.422100C494.268000,143.276000,448.602000,188.157000,400.820000,232.944000C353.546000,277.255000,302.919000,306.200000,240.156000,323.156000C182.207000,338.812000,108.331000,358.665000,49.391800,336.914000C24.655600,327.785000,2.333650,310.348000,-8.410120,285.760000C-17.662400,264.585000,-18.394500,236.231000,-1.392660,218.725000C15.891700,200.927000,42.820900,197.895000,66.289100,199.888000C114.917000,204.019000,159.155000,229.903000,197.128000,258.983000C225.086000,280.393000,252.018000,305.660000,271.735000,335.067000C284.915000,354.724000,293.113000,377.077000,270.904000,393.515000C242.367000,414.637000,198.200000,415.214000,164.442000,415.584000C115.102000,416.123000,64.427400,410.840000,16.797400,397.670000C15.520300,397.317000,-22.049000,389.125000,-10.810900,379.573000C-4.160550,373.920000,6.885800,370.786000,14.581300,368.862000C42.495800,361.883000,72.188300,360.914000,100.545000,366.092000C182.057000,380.975000,264.614000,441.793000,287.801000,523.431000C292.096000,538.552000,296.613000,556.644000,292.880000,572.369000C282.725000,615.142000,238.666000,649.503000,205.808000,674.307000C109.438000,747.053000,-1.227960,801.504000,-114.503000,842.357000C-117.518000,843.445000,-122.247000,843.657000,-118.751000,846.697000" transform="matrix(1 0 0 1 120.30583764500000 33.14215000000002)" fill="none" stroke="rgb(233,233,233)" stroke-width="2" stroke-linecap="round" stroke-linejoin="round" stroke-dashoffset="2460.330000" stroke-dasharray="2460.330000"></path> </svg> 