<?xml version="1.0" standalone="no"?>
<!DOCTYPE svg PUBLIC "-//W3C//DTD SVG 20010904//EN"
 "http://www.w3.org/TR/2001/REC-SVG-20010904/DTD/svg10.dtd">
<svg version="1.0" xmlns="http://www.w3.org/2000/svg"
 width="707.000000pt" height="353.000000pt" viewBox="0 0 707.000000 353.000000"
 preserveAspectRatio="xMidYMid meet">

<g transform="translate(0.000000,353.000000) scale(0.100000,-0.100000)"
fill="#000000" stroke="none">
<path d="M1679 2986 c-2 -3 -45 -10 -94 -17 -60 -8 -114 -23 -161 -44 -69 -32
-72 -34 -114 -111 -40 -72 -45 -88 -61 -213 -37 -278 -20 -531 42 -636 36 -60
53 -77 193 -193 71 -59 138 -117 149 -129 11 -13 26 -23 32 -23 7 0 24 -11 38
-24 14 -13 59 -46 99 -72 40 -27 94 -69 120 -94 27 -25 68 -61 93 -80 25 -19
80 -68 122 -107 43 -40 83 -73 90 -73 7 0 16 -6 20 -12 4 -7 44 -44 88 -82 44
-38 109 -100 145 -137 84 -87 150 -120 150 -76 0 7 13 21 29 31 16 11 48 44
72 74 24 30 60 73 79 96 63 74 96 120 134 189 38 67 54 105 106 248 15 41 33
85 39 97 21 39 61 171 61 200 0 16 9 62 19 103 27 100 58 257 71 352 15 114
13 350 -4 430 -28 130 -64 157 -214 157 -113 0 -107 3 -282 -105 -27 -16 -71
-43 -97 -59 -56 -35 -144 -99 -187 -138 -17 -16 -36 -28 -43 -28 -7 0 -13 -4
-13 -9 0 -5 -25 -27 -55 -50 -30 -23 -98 -82 -150 -133 -53 -50 -97 -89 -99
-87 -3 4 14 97 33 179 5 25 10 114 11 198 0 144 -2 157 -31 247 -43 131 -51
135 -267 135 -87 0 -161 -2 -163 -4z m350 -74 c11 -16 30 -53 41 -83 20 -50
21 -68 17 -249 -2 -107 -9 -208 -15 -225 -19 -52 -52 -204 -52 -240 0 -54 29
-46 76 22 49 71 135 156 254 253 51 41 106 87 123 102 16 15 38 30 48 33 11 4
19 10 19 15 0 9 160 117 188 127 10 4 33 19 52 34 19 16 51 35 71 43 19 8 41
22 49 30 10 13 35 16 120 16 105 0 109 -1 129 -26 39 -50 51 -121 51 -301 0
-113 -5 -191 -16 -238 -8 -38 -21 -113 -29 -165 -8 -52 -21 -118 -30 -147 -8
-28 -25 -96 -36 -150 -11 -56 -35 -128 -55 -168 -18 -39 -34 -81 -34 -94 0
-13 -15 -53 -34 -90 -19 -36 -41 -84 -50 -106 -22 -52 -117 -189 -157 -225 -9
-8 -35 -41 -58 -72 -25 -35 -58 -66 -82 -78 l-40 -21 -28 23 c-16 13 -34 33
-40 45 -5 12 -74 77 -153 144 -79 66 -176 151 -217 188 -40 36 -81 71 -91 76
-10 6 -49 38 -86 72 -77 69 -160 132 -216 163 -21 11 -38 24 -38 28 0 4 -13
16 -30 25 -16 10 -42 30 -58 45 -16 15 -60 52 -97 82 -146 119 -172 148 -207
228 -33 77 -33 78 -36 266 -7 367 53 562 181 597 149 40 206 47 374 48 l172 1
20 -28z"/>
</g>
</svg>
