<?xml version="1.0" encoding="UTF-8"?> <svg xmlns="http://www.w3.org/2000/svg" width="765" height="780" viewBox="0 0 765 780" fill="none"> <path d="M286.367 95.0332C269.544 127.239 256.325 161.25 237.637 192.476C215.249 229.883 185.741 262.488 165.945 301.48C147.564 337.688 138.47 373.926 130.861 413.482C127.866 429.056 117.351 454.253 123.229 470.304C129.412 487.185 203.474 415.478 205.687 413.552C308.478 324.062 420.745 246.915 529.168 164.563C539.127 156.999 509.727 180.345 500.705 189.004C464.967 223.303 434.084 261.758 401.493 298.925C399.311 301.413 370.721 327.447 375.829 334.172C383.552 344.341 393.077 332.025 382.502 353.793C349.743 421.221 296.134 479.556 247.4 535.649C242.093 541.757 236.711 547.799 231.407 553.909C227.696 558.185 219.93 561.559 220.777 567.157C222.02 575.368 234.448 557.713 241.062 552.69C249.618 546.192 267.227 526.316 279.288 526.242C293.428 526.156 297.165 526.668 311.671 518.106C325.792 509.77 409.53 437.037 416.827 474.212C418.941 484.987 404.445 510.695 427.22 495.945C431.974 492.866 424.424 507.184 421.175 511.823C390.392 555.768 353.587 595.885 319.925 637.635C291.264 673.18 320.848 644.458 336.82 632.327C361.038 613.932 386.61 587.421 414.251 574.22C421.509 570.754 431.283 576.376 437.321 580.446C451.301 589.869 446.318 613.099 443.593 626.472C441.155 638.432 426.932 671.816 445.054 645.113C483.425 588.575 525.882 533.159 571.545 482.259C594.952 456.169 582.536 489.665 576.239 502.679C568.681 518.297 559.121 533.235 549.021 547.335C525.594 580.042 503.388 612.738 482.216 646.985C471.574 664.201 458.631 678.612 461.259 698.644" stroke="black" stroke-width="2" stroke-linecap="round" stroke-linejoin="round"></path> </svg> 