<?xml version="1.0" encoding="UTF-8"?> <svg xmlns="http://www.w3.org/2000/svg" width="831" height="539" viewBox="0 0 831 539" fill="none"> <path d="M157.47 252.09C145.317 255.546 130.502 257.927 120.696 267.209C107.643 279.563 108.974 299.811 111.911 315.56C114.986 332.055 119.697 345.265 125.735 360.984C130.512 373.418 136.088 390.31 145.485 400.687C158.781 415.37 172.521 402.38 181.578 390.744C192.917 376.176 220.055 344.796 195.198 330.134C172.23 316.586 142.261 322.184 117.836 327.069C84.2575 333.785 44.955 340.812 15.0031 358.464C-27.7147 383.639 42.7196 432.725 62.81 445.361C98.1999 467.62 136.136 484.902 175.449 498.956C223.68 516.199 274.328 531.964 325.544 536.889C347.346 538.985 375.086 539.36 383.974 514.96C390.05 498.281 387.714 478.494 383.974 461.569C382.15 453.314 378.757 432.296 369.537 428.608" stroke="#EBEBEB" stroke-width="2" stroke-linecap="round" stroke-linejoin="round"></path> <path d="M152.567 254.542C159.936 259.322 165.117 257.291 172.452 253.044C185.717 245.364 197.332 236.215 208.001 225.19C223.841 208.823 235.083 189.121 242.869 167.781C245.936 159.375 249.235 149.812 248.725 140.677C248.012 127.896 238.656 115.878 230.883 106.49C207.357 78.0796 149.494 40.2364 115.179 74.551C101.937 87.7938 104.216 110.954 110.072 127.057C121.728 159.112 152.391 171.979 184.574 174.455C227.037 177.721 271.457 163.729 300.21 131.347C323.356 105.279 330.995 69.6798 310.561 40.0238C301.243 26.5 287.082 17.8437 277.464 5.01989C275.643 2.59201 275.842 1.24669 279.098 1.13814C297.057 0.539513 317.038 6.02578 334.192 9.99126C407.113 26.8483 478.364 50.329 551.162 67.7409C570.67 72.4068 590.23 76.6654 610.205 78.7051C613.784 79.0705 624.144 77.8394 620.965 79.5223C600.074 90.5822 585.042 66.8513 577.789 51.0561C573.28 41.2356 566.388 23.6773 573.839 13.3282C577.803 7.8229 585.145 6.74637 591.341 6.38191C618.985 4.75582 648.019 11.821 674.084 20.2064C719.031 34.6666 764.408 58.8814 792.035 98.4544C807.821 121.067 812.663 149.331 793.669 171.595C789.696 176.252 784.109 182.385 778.96 185.896C777.359 186.987 776.673 183.397 776.576 182.968C774.214 172.535 775.827 160.364 778.551 150.211C784.292 128.812 799.234 111.884 821.182 106.763C832.955 104.016 829.116 139.406 829.15 143.537C829.551 192.481 830.668 241.914 826.222 290.703C824.34 311.353 822.02 333.405 813.419 352.607C804.812 371.821 787.734 387.214 770.243 398.235C723.992 427.376 667.35 436.559 614.291 444.952C604.191 446.55 593.46 447.373 583.51 449.992C579.032 451.17 579.619 454.205 580.854 458.096C583.821 467.441 589.962 476.117 591.273 485.949C592.491 495.085 581.553 487.801 576.836 486.221C531.117 470.907 486.906 455.136 443.086 434.737" stroke="#EBEBEB" stroke-width="2" stroke-linecap="round" stroke-linejoin="round"></path> </svg> 