<?xml version="1.0" encoding="UTF-8"?> <svg xmlns="http://www.w3.org/2000/svg" width="519" height="350" viewBox="0 0 519 350" fill="none"> <path d="M253.289 31.4276C235.673 25.1361 217.223 20.7396 199.052 16.2996C190.4 14.1855 181.78 12.781 173.054 11.1449C167.152 10.0382 167.985 5.89478 163.641 3.30073C156.765 -0.805965 142.758 5.25738 135.739 7.22281C124.525 10.3626 113.019 14.8873 102.009 18.7649C70.6805 29.7988 48.7176 59.0866 30.1786 84.88C17.7815 102.128 13.0069 120.51 7.20645 140.686C1.88661 159.189 -2.9981 180.004 6.08586 198.172C12.8425 211.685 22.9839 223.157 33.3163 234.031C49.095 250.637 66.2637 265.942 85.536 278.407C117.096 298.817 156.443 304.942 191.88 315.89C227.251 326.818 262.091 338.165 299.401 338.919C333.793 339.613 368.433 339.748 402.832 338.975C415.615 338.687 432.065 336.654 441.941 327.601C449.147 320.995 451.737 311.043 454.211 301.939C458.192 287.294 461.733 272.404 464.913 257.564C469.58 235.784 470.995 213.569 474.046 191.561C476.452 174.203 475.6 155.75 473.934 138.332C472.509 123.433 465.223 110.192 456.453 98.3271C454.379 95.5218 446.604 88.3293 455.5 91.3794C458.329 92.3493 470.364 98.7893 461.383 92.9483C446.701 83.3991 430.026 77.1838 412.974 73.562C386.111 67.8567 359.984 57.7788 332.739 54.0636C309.013 50.8283 284.352 52.7077 260.461 52.6069C244.143 52.538 229.331 48.3868 213.284 46.3315C189.695 43.3103 165.063 43.7549 141.342 44.7627C127.787 45.3386 113.833 47.2764 102.345 55.0722C86.8642 65.5769 77.0845 85.1805 67.9426 100.904C48.3729 134.564 40.2515 172.094 48.6124 210.555C58.3227 255.222 80.179 295.941 121.283 318.244C145.734 331.511 172.523 342.282 200.173 346.315C236.655 351.635 273.782 348.313 309.431 339.591C341.17 331.825 371.816 320.443 401.88 307.766C425.222 297.923 450.816 289.623 470.18 272.692C485.445 259.344 497.832 242.214 509.681 225.851C513.946 219.961 517.795 214.348 517.581 206.801C516.112 154.905 465.106 125.417 421.826 110.99C391.837 100.993 360.614 95.2215 328.929 95.6377C310.817 95.8755 295.634 99.9155 280.183 109.253C263.791 119.159 247.641 130.802 235.135 145.392" stroke="#EBEBEB" stroke-width="2" stroke-linecap="round" stroke-linejoin="round"></path> </svg> 