<?xml version="1.0" encoding="UTF-8"?> <svg xmlns="http://www.w3.org/2000/svg" width="543" height="320" viewBox="0 0 543 320" fill="none"> <path d="M82.8346 1.45361C61.1779 32.8642 39.4258 63.5147 21.3716 97.1713C16.1276 106.947 11.1691 116.891 6.71309 127.054C2.94889 135.639 -0.723652 145.539 1.98122 155.034C4.05496 162.313 10.8195 166.695 18.0285 167.892C36.6473 170.985 58.181 163.095 76.0968 159.097C82.0807 157.762 88.0577 156.396 94.0471 155.085C95.6216 154.741 99.1517 153.445 98.8819 155.034C98.5705 156.867 94.805 161.233 94.4586 161.617C84.9222 172.193 73.6568 181.109 62.3641 189.7C51.8766 197.679 49.9619 198.673 40.1963 205.799C39.3108 206.445 33.1916 210.399 32.1727 212.794C29.6374 218.752 57.0212 226.031 59.381 226.938C65.6753 229.358 115.699 249.185 90.7554 260.01C89.6105 260.506 84.4549 261.074 83.709 262.118C83.2277 262.792 85.1268 263.014 85.9206 263.25C94.499 265.797 103.292 267.79 111.946 270.039C131.82 275.204 151.747 280.336 171.403 286.292C180.004 288.898 159.183 296.021 159.059 296.065C141.064 302.3 122.133 305.214 103.099 304.397C100.797 304.298 68.1487 303.112 67.1989 298.996C66.7385 297.001 70.759 296.914 72.7022 296.27C84.7916 292.264 96.9201 289.05 109.323 285.984C173.352 270.151 238.749 261.48 304.719 268.393C325.434 270.564 350.699 275.615 370.965 281.252C378.25 283.278 400.952 290.794 409.231 295.447C428.68 306.378 392.338 317.006 385.263 317.924C364.416 320.629 338.121 317.374 318.503 309.437C306.74 304.679 318.515 291.699 324.263 287.372C346.882 270.35 378.739 267.99 405.94 267.828C424.296 267.718 435.696 268.985 453.567 271.582C468.453 273.745 488.276 280.654 503.56 277.96C531.15 273.098 540.98 230.041 541.415 207.702C542.154 169.782 518.567 142.389 484.427 130.243C478.859 128.262 469.34 127.797 464.214 124.38C459.82 121.45 466.682 109.018 467.866 105.966C481.871 69.8544 508.345 42.1513 533.7 13.489" stroke="#EBEBEB" stroke-width="2" stroke-linecap="round" stroke-linejoin="round"></path> </svg> 