<?xml version="1.0" encoding="UTF-8"?> <svg xmlns="http://www.w3.org/2000/svg" width="711" height="418" viewBox="0 0 711 418" fill="none"> <path d="M541.067 39.2677C535.281 63.3751 539.681 82.236 548.143 105.215C563.034 145.654 591.837 184.552 630.577 204.964C655.913 218.313 691.995 226.76 703.826 192.994C712.311 168.781 714.305 132.767 689.448 117.185C662.743 100.444 643.523 141.007 635.019 159.267C615.397 201.397 599.037 249.331 603.776 296.431C604.965 308.242 607.658 320.117 614.391 330.082C617.458 334.622 624.801 339.076 626.738 344.16C628.057 347.623 619.445 345.602 615.746 345.816C591.028 347.251 566.99 351.072 543.325 358.539C529.542 362.888 514.851 367.876 502.823 376.155C494.721 381.732 488.073 388.752 479.185 393.244C471.605 397.074 463.304 399.473 455.094 401.525C454.516 401.67 447.678 402.489 452.083 401.073C460.837 398.26 477.86 393.471 486.035 399.869C492.577 404.989 494.016 413.672 483.099 401.224C469.006 385.154 455.409 368.829 438.833 355.151C413.584 334.316 386.093 323.92 353.991 318.941C351.587 318.568 295.823 309.615 294.743 315.553C291.722 332.169 303.315 352.68 306.262 368.702C310.632 392.468 288.046 410.915 266.588 415.829C235.19 423.018 207.875 392.316 187.843 373.219C163.399 349.917 140.566 324.836 114.97 302.755C104.203 293.466 88.2488 278.213 72.5861 278.213C62.2979 278.213 54.0498 296.569 52.4857 305.465C51.4585 311.307 53.6762 316.813 57.1532 321.425C67.7629 335.497 81.8145 348.195 94.9448 359.819C103.744 367.608 113.228 374.439 122.423 381.726C126.604 385.039 129.91 390.261 134.694 385.114C155.692 362.52 151.258 331.232 136.124 306.369C107.266 258.958 57.7039 227.252 21.4695 186.068C15.0109 178.727 8.20287 170.515 3.85351 161.676C0.800503 155.472 1.74562 148.337 1.74562 141.651C1.74562 129.271 4.12379 121.962 15.5975 115.83C36.833 104.48 59.4993 102.397 82.2975 96.3315C98.9018 91.9138 111.837 82.9035 125.359 73.0693C136.19 65.1919 159.739 59.2735 157.881 41.8273C156.251 26.5235 137.782 7.02241 123.176 2.15362C119.338 0.874257 116.117 2.49143 112.41 3.65926C93.3918 9.65137 73.5603 14.2216 53.8408 17.1348C40.7853 19.0634 27.7558 18.9415 14.6189 18.9415C11.0501 18.9415 13.1522 21.1156 15.2964 21.6517" stroke="#EBEBEB" stroke-width="2" stroke-linecap="round" stroke-linejoin="round"></path> </svg> 